<svg width="70" height="70" viewBox="0 0 70 70" fill="none" xmlns="http://www.w3.org/2000/svg">
<path d="M56.1834 9.22641C56.242 9.27469 56.3018 9.32187 56.3626 9.37124C58.4329 11.0543 60.356 12.8944 61.9372 15.0416C62.0279 15.1623 62.1175 15.2819 62.2083 15.4026C66.2271 20.8074 68.3848 27.3291 68.5762 34.0232C68.5796 34.1065 68.5818 34.1899 68.5851 34.2755C68.7024 37.8294 68.1226 41.3974 67.0271 44.7757C66.9961 44.8701 66.9663 44.9644 66.9342 45.0621C65.904 48.1771 64.3449 51.0386 62.4108 53.685C62.2791 53.8682 62.153 54.0559 62.0257 54.2446C61.7679 54.6275 61.4725 54.9665 61.1626 55.3089C61.1195 55.356 61.1195 55.356 60.9026 55.5974C59.5095 57.1269 58.0655 58.6729 56.4047 59.9171C56.2973 60.0027 56.1889 60.0883 56.0782 60.176C55.1255 60.9287 54.1164 61.5816 53.0851 62.2212C53.0154 62.2651 52.9457 62.309 52.8738 62.3551C51.8182 63.0178 50.725 63.5642 49.5886 64.0766C49.4049 64.1589 49.2212 64.2434 49.0386 64.329C44.7476 66.3072 39.983 67.2267 35.2704 67.3781C35.1929 67.3803 35.1154 67.3836 35.0358 67.3858C26.7956 67.6162 18.3751 64.9664 12.0337 59.6977C11.9242 59.6088 11.8135 59.5199 11.7006 59.4289C10.8519 58.7332 10.0619 57.9849 9.28071 57.2158C9.23202 57.1664 9.23202 57.1664 8.97974 56.9196C8.8879 56.8274 8.79606 56.7363 8.7009 56.642C8.61791 56.5597 8.53603 56.4774 8.44972 56.3918C8.27157 56.1866 8.27157 56.1866 8.27157 55.9672C8.19854 55.9672 8.12551 55.9672 8.05027 55.9672C7.85663 55.7445 7.67627 55.5217 7.49702 55.288C7.4428 55.2178 7.38858 55.1487 7.33215 55.0763C7.22039 54.9314 7.10753 54.7855 6.99577 54.6407C6.85082 54.453 6.70255 54.2687 6.55317 54.0844C5.67349 52.9872 4.92328 51.8066 4.20848 50.5975C4.06684 50.3715 4.06684 50.3715 3.84554 50.152C-0.289475 42.2961 -1.13264 33.2441 1.52409 24.7759C3.61096 18.4429 7.65193 12.6947 13.0296 8.67781C13.1048 8.62185 13.18 8.5648 13.2564 8.50665C14.53 7.55757 15.8478 6.71163 17.2343 5.93481C17.3261 5.88324 17.4191 5.83167 17.5142 5.77791C21.7123 3.44965 26.4006 2.18128 31.1763 1.76544C31.2637 1.75666 31.3511 1.74898 31.4407 1.74021C40.2419 0.928277 49.3684 3.66031 56.1834 9.22641ZM13.2509 13.9444C13.1823 14.0102 13.1136 14.076 13.0428 14.143C12.1676 14.9845 11.3344 15.8338 10.5952 16.7971C10.5399 16.8673 10.4846 16.9375 10.4282 17.0089C7.04667 21.3154 5.12577 26.3153 4.50945 31.719C4.49506 31.8419 4.47957 31.9648 4.46519 32.091C3.76366 39.2184 6.07958 46.4643 10.6251 51.9931C11.0965 52.5516 11.5999 53.0815 12.1056 53.6093C12.2639 53.7816 12.4099 53.9615 12.5571 54.1436C12.6401 54.238 12.7231 54.3335 12.8083 54.4311C12.8813 54.4311 12.9543 54.4311 13.0296 54.4311C13.0296 54.5035 13.0296 54.5759 13.0296 54.6505C13.169 54.7932 13.169 54.7932 13.3748 54.9665C13.4567 55.0346 13.5374 55.1026 13.6215 55.1728C13.7178 55.254 13.8152 55.3352 13.9148 55.4186C14.0298 55.5184 14.1449 55.6194 14.26 55.7192C18.0819 59.0437 24.1223 62.6853 29.376 62.659C29.6272 62.6601 29.6272 62.6601 29.7378 62.7698C31.1165 62.9915 32.4975 63.0244 33.8917 63.0178C34.2114 63.0167 34.5312 63.0178 34.851 63.0189C36.1843 63.02 37.49 62.9432 38.8112 62.7698C38.9296 62.7545 39.048 62.7391 39.1708 62.7227C42.3896 62.2684 45.5963 61.2206 48.4599 59.6933C48.6646 59.5847 48.8704 59.4804 49.0763 59.3773C52.2962 57.7425 55.3026 55.3176 57.6218 52.5659C57.6694 52.5099 57.717 52.4539 57.7657 52.3969C58.6586 51.337 59.4376 50.231 60.1668 49.0548C60.2387 48.9396 60.3095 48.8244 60.3837 48.7059C62.6952 44.88 64.148 40.4176 64.1723 35.9356C64.1734 35.839 64.1745 35.7425 64.1745 35.6426C64.2 31.6192 64.2 31.6192 63.8183 29.7441C63.7961 29.6333 63.774 29.5224 63.7519 29.4072C62.6996 24.2252 60.3892 19.7146 56.9579 15.6999C56.8749 15.6033 56.793 15.5068 56.7078 15.4069C56.2564 14.8891 56.2564 14.8891 56.0727 14.7124C55.9997 14.7124 55.9266 14.7124 55.8514 14.7124C55.8514 14.64 55.8514 14.5676 55.8514 14.493C55.6887 14.3339 55.6887 14.3339 55.4641 14.1506C55.1388 13.8763 54.8334 13.5966 54.5369 13.2926C52.3128 11.0653 49.2677 9.33503 46.3742 8.12811C46.2004 8.0557 46.0278 7.98218 45.8552 7.90867C42.4627 6.45817 38.8422 5.73621 35.1597 5.60565C35.0325 5.60126 34.9052 5.59577 34.7735 5.59138C26.82 5.45533 18.9704 8.46605 13.2509 13.9444Z" fill="#3078FD"/>
<path d="M36.2348 16.8349C36.1865 16.1924 35.9575 15.7461 35.4815 15.3193C34.6821 14.904 33.7885 14.8478 33.0543 15.4272C32.5693 16.0593 32.4728 16.641 32.447 17.4246C32.4437 17.5437 32.4415 17.6595 32.4392 17.7742L32.4391 17.7814L32.4391 17.7821C32.4279 18.1753 32.4167 18.5686 32.4088 18.9619C32.4066 19.0985 32.4032 19.2315 32.4009 19.3635C32.3852 20.1379 32.3729 20.9111 32.3628 21.6856C32.3246 24.6742 32.2606 27.6617 32.1775 30.6492C32.1753 30.7444 32.1719 30.8374 32.1697 30.9291C32.1349 32.1602 32.1001 33.3912 32.0641 34.6222C31.8048 34.5626 31.6286 34.5167 31.4063 34.3618C31.3243 34.2941 31.2457 34.2287 31.166 34.1633C30.488 33.6344 29.811 33.1044 29.1453 32.5571C28.85 32.3139 28.5537 32.0741 28.2539 31.8389C27.6578 31.3743 27.0662 30.905 26.4846 30.4209C25.5977 29.6786 24.6996 28.9547 23.7925 28.2376C23.4232 27.9451 23.055 27.6514 22.6878 27.3565C22.6216 27.3038 22.5576 27.2521 22.4936 27.2005L22.1131 26.8942C21.9233 26.7416 21.7325 26.5879 21.5416 26.4353C21.4743 26.3813 21.4103 26.3297 21.3452 26.2769C21.2138 26.1714 21.0813 26.0658 20.95 25.9603L20.9499 25.9602C20.6176 25.6952 20.2854 25.4302 19.9587 25.1572C19.2447 24.5526 18.5408 23.8333 17.5821 23.7231C16.8333 23.6864 16.2372 23.9044 15.6736 24.4115C15.1965 24.9771 15.0123 25.5048 15 26.2471C15.1729 27.2533 15.1729 27.2533 16.6121 28.7287C16.7154 28.8331 16.8153 28.9352 16.9152 29.0361L16.917 29.038C17.1712 29.2989 17.1713 29.299 17.2217 29.3516C17.3216 29.4537 31.0035 41.5002 31.1 41.6C31.9251 42.6394 32.5547 42.8413 33.8604 42.9973C35.1458 43.0306 36.2404 42.7598 37.2496 41.9292C38.4037 40.8301 38.4239 39.6351 38.5755 38.1C38.4991 38.061 38.6496 37.8724 38.5755 37.8346C38.4531 36.6391 37.9973 35.8762 37.2283 34.9664C37.1261 34.8781 37.0273 34.792 36.9286 34.7071C36.6457 34.3664 36.5985 34.1702 36.5839 33.7296C36.5828 32.9851 36.5828 32.9851 36.5312 31.2967L36.5311 31.2963C36.4739 29.3895 36.429 27.4827 36.3931 25.5748L36.3863 25.1974L36.3852 25.1342C36.3642 23.9977 36.3433 22.8623 36.3235 21.7257C36.3122 21.0718 36.2999 20.4178 36.2887 19.7639C36.283 19.5176 36.2786 19.2714 36.2741 19.0251L36.2741 19.0239C36.2684 18.6728 36.2628 18.3218 36.2561 17.9718L36.2494 17.6517C36.2482 17.5496 36.2471 17.4498 36.2449 17.3512C36.2438 17.2579 36.2416 17.1691 36.2394 17.0792L36.2393 17.0735C36.2381 16.9921 36.237 16.9129 36.2348 16.8349Z" fill="#3078FD"/>
<path d="M56.4284 34.01C56.4905 34.01 56.4905 34.01 56.8055 34.008C57.0671 34.008 57.3299 34.008 57.5927 34.009C57.9929 34.01 58.3944 34.007 58.7946 34.004C59.0501 34.003 59.3056 34.003 59.561 34.004C59.6207 34.003 59.6207 34.003 59.9224 34C60.6401 34.006 61.0416 34.0658 61.5915 34.4515C62.0331 34.8501 62.0112 35.2747 61.9917 35.788C61.9321 36.2295 61.7131 36.4368 61.3579 36.7537C60.7995 37.0368 60.2898 37.0009 59.6462 36.9959C59.5805 36.9969 59.5805 36.9969 59.252 36.9979C58.9783 36.9979 58.7046 36.9969 58.4309 36.9959C58.0124 36.9929 57.5939 36.9949 57.1754 36.9979C56.909 36.9979 56.6425 36.9969 56.3761 36.9959C56.3141 36.9969 56.3141 36.9969 55.9978 36.9989C55.2715 36.9909 54.8457 36.9431 54.2921 36.5444C53.9454 36.1059 53.971 35.5548 54.0488 35.0495C54.1997 34.6927 54.4199 34.4315 54.7775 34.1864C55.3226 33.988 55.8372 34.009 56.4284 34.01Z" fill="#3078FD"/>
<path d="M33.002 59.3083C33.002 59.2148 33.001 59.1214 33.001 59.0251C33.001 58.8278 33.001 58.6306 33.0029 58.4333C33.0038 58.1323 33.0029 57.8313 33.001 57.5293C33.001 57.3377 33.001 57.146 33.002 56.9534C33.002 56.9086 33.002 56.9086 33.0001 56.6814C33.0057 56.1906 33.0384 55.8353 33.3198 55.4137C33.7676 55.0669 34.1229 54.979 34.6875 55.0033C35.1082 55.0725 35.3578 55.2782 35.6224 55.5988C35.8122 56.0186 35.7925 56.4131 35.7907 56.8684C35.7907 56.916 35.7907 56.916 35.7925 57.1582C35.7925 57.3592 35.7925 57.5611 35.7916 57.763C35.7916 58.0706 35.7935 58.3791 35.7972 58.6867C35.7972 58.883 35.7972 59.0793 35.7963 59.2756C35.7972 59.3214 35.7972 59.3214 35.8 59.5533C35.7944 60.1039 35.743 60.4171 35.3765 60.8359C34.9614 61.1191 34.5613 61.1995 34.0677 61.1163C33.7013 60.9948 33.418 60.863 33.1712 60.561C32.9786 60.145 32.9992 59.7617 33.002 59.3083Z" fill="#3078FD"/>
<path d="M33.002 11.3083C33.002 11.2148 33.001 11.1214 33.001 11.0251C33.001 10.8278 33.001 10.6306 33.0029 10.4333C33.0038 10.1323 33.0029 9.83126 33.001 9.5293C33.001 9.33766 33.001 9.14601 33.002 8.95343C33.002 8.90856 33.002 8.90856 33.0001 8.68139C33.0057 8.19059 33.0384 7.83535 33.3198 7.41373C33.7676 7.0669 34.1229 6.97902 34.6875 7.00333C35.1082 7.0725 35.3578 7.27817 35.6224 7.59883C35.8122 8.01858 35.7925 8.41309 35.7907 8.86836C35.7907 8.91604 35.7907 8.91604 35.7925 9.15817C35.7925 9.35916 35.7925 9.56109 35.7916 9.76302C35.7916 10.0706 35.7935 10.3791 35.7972 10.6867C35.7972 10.883 35.7972 11.0793 35.7963 11.2756C35.7972 11.3214 35.7972 11.3214 35.8 11.5533C35.7944 12.1039 35.743 12.4171 35.3765 12.8359C34.9614 13.1191 34.5613 13.1995 34.0677 13.1163C33.7013 12.9948 33.418 12.863 33.1712 12.561C32.9786 12.145 32.9992 11.7617 33.002 11.3083Z" fill="#3078FD"/>
<circle cx="34" cy="34" r="31.5" stroke="#3078FD" stroke-width="5"/>
</svg>
