<svg width="70" height="70" viewBox="0 0 70 70" fill="none" xmlns="http://www.w3.org/2000/svg">
<path d="M37.0293 9.71926C38.4759 9.736 39.0057 9.82066 40.1885 10.7915C40.8518 11.7293 40.8519 11.7297 40.873 12.6665C40.4215 13.7291 40.1272 14.0166 39.1572 14.5845C38.1624 14.684 37.2402 14.7224 36.2461 14.7105C35.9527 14.7112 35.6587 14.7116 35.3564 14.7124C34.7201 14.7135 34.0837 14.7129 33.4473 14.7095C32.4382 14.7046 31.4289 14.7071 30.4199 14.7114C27.5514 14.7225 24.683 14.7206 21.8145 14.7134C20.059 14.7095 18.3033 14.7143 16.5479 14.7241C15.8804 14.7261 15.2124 14.7242 14.5449 14.7193C13.6089 14.7124 12.6734 14.7168 11.7373 14.7232C11.4641 14.7184 11.1907 14.7134 10.9092 14.7085C8.88701 14.7391 7.47121 15.3182 5.93848 16.7261C4.618 18.5719 4.77765 20.5876 4.79004 22.8052C4.78737 23.3948 4.78788 23.3952 4.78516 23.9966C4.78069 25.2938 4.78367 26.591 4.78711 27.8882C4.78642 28.7913 4.78546 29.695 4.78418 30.5982C4.78268 32.4901 4.78421 34.382 4.78906 36.2739C4.79459 38.457 4.79271 40.6407 4.78711 42.8237C4.78193 44.9289 4.78316 47.034 4.78613 49.1392C4.78681 50.0326 4.78557 50.9264 4.7832 51.8198C4.78062 53.0695 4.78438 54.3192 4.79004 55.5689C4.78798 55.9369 4.7863 56.3049 4.78418 56.6841C4.80327 58.9656 4.97861 60.845 6.42285 62.6607C8.0937 64.0062 9.40693 64.6371 11.5127 64.645C11.879 64.6481 12.2456 64.6507 12.623 64.6538C13.0215 64.6535 13.4205 64.6532 13.8311 64.6528C14.2532 64.6552 14.6754 64.6582 15.1104 64.6607C16.2666 64.6663 17.4229 64.668 18.5791 64.6685C19.3025 64.669 20.0266 64.6705 20.75 64.6724C23.276 64.679 25.8021 64.6827 28.3281 64.6821C30.6784 64.6817 33.0286 64.6884 35.3789 64.6997C37.4003 64.7091 39.422 64.7129 41.4434 64.7124C42.649 64.7122 43.8549 64.7146 45.0605 64.7222C46.4065 64.7304 47.7527 64.7275 49.0986 64.7232C49.4951 64.7272 49.8923 64.7307 50.3008 64.7349C52.9951 64.713 54.9321 64.3566 56.9102 62.2739C58.0351 60.3606 58.2373 58.5655 58.2207 56.355C58.2214 56.0786 58.222 55.8019 58.2227 55.5171C58.2239 54.9202 58.2232 54.323 58.2217 53.7261C58.2198 52.7812 58.2229 51.8361 58.2275 50.8911C58.2401 48.2054 58.247 45.5193 58.2432 42.8335C58.2412 41.188 58.2474 39.5425 58.2588 37.897C58.2615 37.2707 58.2605 36.6444 58.2568 36.0181C58.252 35.1433 58.2578 34.2688 58.2656 33.3941C58.2616 33.1357 58.258 32.877 58.2539 32.6109C58.2782 31.229 58.3823 30.7435 59.3389 29.7593C59.7517 29.4911 59.7519 29.4908 60.1729 29.2173C62.5031 30.1987 62.5035 30.1986 62.8848 31.0015C62.9215 31.8755 62.9382 32.7396 62.9395 33.6138C62.9411 33.8831 62.9426 34.1527 62.9443 34.4302C62.9493 35.3245 62.9522 36.2195 62.9541 37.1138C62.9561 37.7362 62.958 38.3586 62.96 38.981C62.9635 40.2891 62.9656 41.5977 62.9668 42.9058C62.9686 44.5744 62.9767 46.243 62.9863 47.9116C62.9927 49.1994 62.9936 50.4872 62.9941 51.7749C62.9952 52.3894 62.9985 53.0042 63.0029 53.6187C63.0343 58.2633 62.8157 62.2984 59.834 65.9771C56.3412 69.4843 52.6797 69.9566 48.0225 69.9546C47.62 69.9558 47.2174 69.9573 46.8027 69.9585C45.7025 69.9613 44.6022 69.9622 43.502 69.9624C42.8135 69.9627 42.125 69.9634 41.4365 69.9644C39.0313 69.9677 36.626 69.9695 34.2207 69.9693C31.9838 69.969 29.7467 69.9724 27.5098 69.978C25.5847 69.9827 23.6594 69.9851 21.7344 69.9849C20.5866 69.9848 19.4388 69.986 18.291 69.9898C17.0101 69.9933 15.7292 69.9919 14.4482 69.9898C14.0713 69.9918 13.694 69.9936 13.3057 69.9956C9.78237 69.9806 6.2582 69.2899 3.56543 66.6909V65.9771H2.8877C2.40055 65.3094 2.40069 65.3089 1.87109 64.3931C1.69637 64.0992 1.52181 63.8052 1.3418 63.5025C0.159207 60.8464 0.0756302 58.1154 0.078125 55.2241C0.0758494 54.8403 0.0736336 54.4565 0.0712891 54.0611C0.0648837 52.7997 0.0632305 51.5382 0.0625 50.2769C0.0603198 49.3948 0.0580401 48.5125 0.0556641 47.6304C0.0516129 45.7842 0.0503789 43.9375 0.0507812 42.0913C0.0508494 39.7326 0.0409666 37.3739 0.0292969 35.0152C0.0217391 33.194 0.0211264 31.3724 0.0214844 29.5513C0.0206869 28.6821 0.0169775 27.813 0.0117188 26.9439C0.005035 25.7254 0.00764922 24.5071 0.0117188 23.2886C0.00790911 22.934 0.00392509 22.5787 0 22.2134C0.0283412 18.8574 0.916096 15.7199 2.94238 13.0816C5.5252 10.4373 8.13516 9.89563 11.6162 9.87648C12.0588 9.8721 12.0592 9.87216 12.5107 9.86769C13.4837 9.85886 14.4567 9.85234 15.4297 9.84719C15.929 9.84434 15.929 9.84423 16.4385 9.84133C18.1986 9.83181 19.9586 9.825 21.7188 9.81984C23.1753 9.81507 24.6324 9.80509 26.0889 9.79054C27.849 9.77297 29.609 9.76379 31.3691 9.76125C32.0394 9.75885 32.7097 9.75416 33.3799 9.74562C34.3171 9.73436 35.2541 9.73418 36.1914 9.73683C36.4679 9.73098 36.7444 9.72529 37.0293 9.71926ZM22.8838 30.6421C23.5192 30.8372 23.5192 30.8376 24.2393 31.356C24.5275 32.2368 24.7388 33.0389 24.917 33.9439C25.4332 36.5054 26.3259 38.5626 28.3125 40.2446C29.5133 40.9415 30.8336 41.1805 32.168 41.4653C33.0524 41.7065 33.0528 41.7059 33.7305 42.4195C33.7728 43.3563 33.7728 43.357 33.7305 44.2046C33.436 44.2911 33.1413 44.3772 32.8379 44.4663C30.757 45.1035 29.0149 45.6732 27.29 47.0591C26.9545 47.1769 26.6191 47.2952 26.2734 47.4165C25.4716 49.1238 25.0588 51.0319 24.5449 52.853C24.2391 53.8401 24.2394 53.8409 23.9004 54.1978C23.0745 54.287 23.0742 54.2869 22.2061 54.1978C21.5282 53.1272 21.528 53.1266 21.2314 51.7886C20.6538 49.239 19.5554 47.4685 17.46 45.9888C16.5913 45.5691 15.7066 45.2698 14.791 44.9849C14.5578 44.9078 14.3243 44.8309 14.084 44.7515C13.5161 44.5646 12.946 44.3841 12.376 44.2046C12.2641 43.6157 12.1524 43.0262 12.0371 42.4195C13.3941 41.7672 14.6518 41.2855 16.1045 40.9253C18.0554 40.325 19.0863 39.1985 20.1719 37.4234C21.0079 35.7166 21.3562 33.9109 21.6553 32.0278C21.867 31.3562 21.8671 31.3558 22.8838 30.6421ZM49.335 0.30031C50.3398 -0.0523458 50.3431 -0.0519689 51.208 0.0854665C52.1639 0.751585 52.1928 0.923726 52.4375 2.05129C52.5352 2.63511 52.6267 3.22033 52.7129 3.80617C53.6082 8.917 55.0416 14.08 59.2803 17.2339C62.0458 18.9601 64.809 19.7707 67.9648 20.3579C69.4718 20.785 69.4721 20.7853 70 21.7173C69.8941 22.6765 69.8942 22.6771 69.6611 23.5025C67.6791 24.0921 65.7042 24.6251 63.6865 25.063C61.712 25.5384 60.1454 26.2301 58.4746 27.4282C58.2668 27.5652 58.0589 27.7021 57.8447 27.8433C54.5273 30.3624 53.2877 35.3715 52.6631 39.4058C52.5818 39.9482 52.5022 40.4909 52.4229 41.0337C52.1071 43.0551 52.1066 43.0554 51.3564 43.8452C50.5093 43.9344 50.5091 43.9344 49.6621 43.8452C48.8921 43.0345 48.8546 42.7487 48.6807 41.6509C48.6306 41.353 48.58 41.0545 48.5283 40.7476C48.4758 40.4301 48.4233 40.1127 48.3691 39.7857C47.45 34.6987 46.0949 30.7925 42.0986 27.4946C39.1008 25.4181 35.5079 24.6144 31.998 24.0698C31.3575 23.8594 31.3574 23.8589 30.6797 22.7886C30.8068 21.8294 30.8067 21.8288 31.0186 21.0034C31.2611 20.9427 31.5041 20.8824 31.7539 20.8198C39.8345 18.7813 39.8345 18.7809 45.5938 12.7954C47.1626 10.0247 47.7461 7.04529 48.3418 3.9214C48.5434 2.90698 48.7533 1.92434 49.0811 0.95949C49.0494 0.859656 49.0184 0.758992 48.9863 0.657732C49.0982 0.539964 49.21 0.421647 49.3252 0.30031H49.335ZM61.0166 3.82765C61.8638 3.87225 61.8642 3.87216 62.2031 4.22902C62.217 4.94266 62.2175 5.657 62.2031 6.37062C62.6747 6.33752 62.6749 6.33702 63.1562 6.30324C64.2365 6.37015 64.2366 6.37053 64.8721 6.90578C64.9979 7.08244 65.1243 7.25892 65.2539 7.44094C65.0302 8.02981 64.8057 8.61937 64.5752 9.22609H62.2031C62.273 9.43941 62.3431 9.65279 62.415 9.87258C62.5421 10.6532 62.5421 10.6536 61.8643 11.7241C60.9957 11.8134 60.9952 11.8134 60.1689 11.7241C59.83 11.3672 59.8298 11.3669 59.8086 10.2739C59.8191 9.75526 59.8194 9.7551 59.8301 9.22609H57.457C57.0757 8.40078 57.0759 8.40009 56.7793 7.44094C57.0029 7.08773 57.2266 6.73453 57.457 6.37062C58.6858 6.30371 58.6861 6.30371 59.8301 6.37062C59.8231 6.02466 59.8158 5.67824 59.8086 5.32179C59.8363 3.88981 59.8369 3.88976 61.0166 3.82765Z" fill="#3078FD"/>
</svg>
