<svg width="70" height="70" viewBox="0 0 70 70" fill="none" xmlns="http://www.w3.org/2000/svg">
<path d="M27.5625 17.0625L28.875 8.3125H38.9375L40.6875 17.0625L44.625 18.8125L53.8125 13.5625L58.625 18.375L52.5 24.9375L54.6875 31.9375H61.6875V40.6875H56L53.375 46.8125L57.75 50.75L53.375 56.4375L46.5 50L41.5 53.5L38.9375 64H28.5L27 55.5L22.75 53.5L14.875 59L9.625 52.0625L16.1875 47.5L14.875 40.6875L6.125 39.8125V31.9375L14.875 31.0625L16.1875 24.9375L9.625 18.8125L14.875 13.5625L22.75 18.8125L27.5625 17.0625Z" stroke="#2388FF" stroke-width="5" stroke-linejoin="round"/>
<path d="M34.5625 45.0625C40.1199 45.0625 44.625 40.5574 44.625 35C44.625 29.4426 40.1199 24.9375 34.5625 24.9375C29.0051 24.9375 24.5 29.4426 24.5 35C24.5 40.5574 29.0051 45.0625 34.5625 45.0625Z" stroke="#2388FF" stroke-width="5"/>
<path d="M40.25 53.8125C40.25 56.1331 41.1719 58.3587 42.8128 59.9997C44.4538 61.6406 46.6794 62.5625 49 62.5625C51.3206 62.5625 53.5462 61.6406 55.1872 59.9997C56.8281 58.3587 57.75 56.1331 57.75 53.8125C57.75 51.4919 56.8281 49.2663 55.1872 47.6253C53.5462 45.9844 51.3206 45.0625 49 45.0625C46.6794 45.0625 44.4538 45.9844 42.8128 47.6253C41.1719 49.2663 40.25 51.4919 40.25 53.8125Z" fill="white" stroke="#2388FF" stroke-width="5"/>
<path d="M49 41.5625V48.5625M49 59.0625V66.0625M36.75 53.8125H43.75M54.25 53.8125H61.25" stroke="#2388FF" stroke-width="5" stroke-linecap="round"/>
</svg>
