<svg width="70" height="70" viewBox="0 0 70 70" fill="none" xmlns="http://www.w3.org/2000/svg">
<g clip-path="url(#clip0_15829_14843)">
<path d="M10.0333 3.5H39.4333L52.5 16.5667V59.0333C52.5 63.1167 49.2333 65.5667 45.9667 65.5667H10.0333C6.76667 65.5667 3.5 63.1167 3.5 59.0333V10.0333C3.5 5.95 6.76667 3.5 10.0333 3.5Z" stroke="#3078FD" stroke-width="5" stroke-linejoin="round"/>
<rect width="24.3416" height="34.7988" transform="translate(58.2812 20.5332) rotate(50.918)" fill="white"/>
<path d="M40.8783 46.3978L58.5769 28.167C60.1859 26.5097 63.4522 26.4613 65.1095 28.0703C66.7669 29.6793 66.8153 32.9456 65.2063 34.6029L47.5076 52.8337L39.3661 54.5878L40.8783 46.3978Z" stroke="#3078FD" stroke-width="5" stroke-linejoin="round"/>
<path d="M39.4336 3.5V16.5667H52.5003" stroke="#3078FD" stroke-width="5" stroke-linejoin="round"/>
<path d="M14.9336 24.7324H39.4336" stroke="#3078FD" stroke-width="5" stroke-linecap="round"/>
<path d="M14.9336 34.5332H36.1669" stroke="#3078FD" stroke-width="5" stroke-linecap="round"/>
<path d="M14.9336 44.333H29.6336" stroke="#3078FD" stroke-width="5" stroke-linecap="round"/>
<path d="M14.9336 52.5H24.7336" stroke="#3078FD" stroke-width="5" stroke-linecap="round"/>
</g>
<defs>
<clipPath id="clip0_15829_14843">
<rect width="70" height="70" fill="white"/>
</clipPath>
</defs>
</svg>
