<svg width="66" height="70" viewBox="0 0 66 70" fill="none" xmlns="http://www.w3.org/2000/svg">
<path d="M5.86719 58.9472V25.0524C5.86719 22.1051 8.06719 19.8945 11.0005 19.8945H19.0672V58.9472" stroke="#2388FF" stroke-width="5" stroke-linejoin="round"/>
<path d="M11.7344 28H14.6677M11.7344 35.3684H14.6677M11.7344 42.7368H14.6677M11.7344 50.1053H14.6677" stroke="#2388FF" stroke-width="5" stroke-linecap="round"/>
<path d="M22 58.9465V14.736C22 11.7887 24.2 9.57812 27.1333 9.57812H38.1333C41.0667 9.57812 43.2667 11.7887 43.2667 14.736V58.9465" stroke="#2388FF" stroke-width="5" stroke-linejoin="round"/>
<path d="M27.8672 19.1582H34.5M35.2005 19.1582H37.4005M27.8672 28.0003L35.5 28M35.2005 28.0003H37.4005M27.8672 36.8424H32.2672M35.2005 36.8424H37.4005M27.8672 45.6845H32.2672M35.2005 45.6845H37.4005" stroke="#2388FF" stroke-width="5" stroke-linecap="round"/>
<path d="M45.4648 58.948V29.4743C45.4648 26.5269 47.6648 24.3164 50.5982 24.3164H55.7315C58.6648 24.3164 60.8648 26.5269 60.8648 29.4743V58.948" stroke="#2388FF" stroke-width="5" stroke-linejoin="round"/>
<path d="M51.332 35.3691H54.9987M51.332 42.7376H54.9987M51.332 50.106H54.9987" stroke="#2388FF" stroke-width="5" stroke-linecap="round"/>
<path d="M2.93359 58.9473H63.0669" stroke="#2388FF" stroke-width="5" stroke-linecap="round"/>
</svg>
